<!-- <svg xmlns="http://www.w3.org/2000/svg" viewBox="0 0 24 24" width="24" height="24">
  <path fill="#3b5998" d="M21.6 0H2.4A2.4 2.4 0 0 0 0 2.4v19.2A2.4 2.4 0 0 0 2.4 24h10.56V14.72h-3.36v-3.84h3.36v-2.88c0-3.36 2.048-5.184 5.024-5.184 1.44 0 2.688 0.096 3.04 0.144v3.456h-2.08c-1.632 0-1.952 0.768-1.952 1.904v2.496h3.936l-0.512 3.84h-3.424V24h6.72a2.4 2.4 0 0 0 2.4-2.4V2.4A2.4 2.4 0 0 0 21.6 0z"/>
</svg> -->
<svg xmlns="http://www.w3.org/2000/svg" viewBox="0 0 24 24" width="24" height="24">
  <path d="M16.9,15.5c2.4-3.2,2.2-7.7-0.7-10.6c-3.1-3.1-8.1-3.1-11.3,0c-3.1,3.2-3.1,8.3,0,11.4
    c2.9,2.9,7.5,3.1,10.6,0.6c0,0.1,0,0.1,0,0.1l4.2,4.2c0.5,0.4,1.1,0.4,1.5,0c0.4-0.4,0.4-1,0-1.4L16.9,15.5
    C16.9,15.5,16.9,15.5,16.9,15.5L16.9,15.5z M14.8,6.3c2.3,2.3,2.3,6.1,0,8.5c-2.3,2.3-6.1,2.3-8.5,0C4,12.5,4,8.7,6.3,6.3
    C8.7,4,12.5,4,14.8,6.3z"/>
</svg>