<svg xmlns="http://www.w3.org/2000/svg" viewBox="0 0 24 24" width="24" height="24">
  <rect fill="#405de6" x="4" y="4" width="16" height="16" rx="4"/>
  <path fill="#fff" d="M17.53 4H6.47A2.47 2.47 0 0 0 4 6.47v11.06C4 19.41 4.59 20 5.29 20h13.41c0.7 0 1.29-0.59 1.29-1.29V6.47C19 4.91 18.41 4.33 17.53 4zM12 15.56c-1.95 0-3.56-1.6-3.56-3.56s1.6-3.56 3.56-3.56 3.56 1.6 3.56 3.56S13.95 15.56 12 15.56zM17.65 7.35c0 0.94-0.76 1.71-1.71 1.71s-1.71-0.76-1.71-1.71 0.76-1.71 1.71-1.71S17.65 6.41 17.65 7.35z"/>
  <circle fill="#fff" cx="12" cy="12" r="2.5"/>
</svg>
