<svg xmlns="http://www.w3.org/2000/svg" viewBox="0 0 24 24" width="24" height="24">
  <path fill="#1da1f2" d="M22.46 4.91c-0.84 0.37-1.73 0.62-2.67 0.73 0.96-0.57 1.7-1.48 2.05-2.57 -0.9 0.53-1.9 0.92-2.96 1.13 -0.85-0.91-2.06-1.48-3.4-1.48 -2.57 0-4.66 2.09-4.66 4.66 0 0.37 0.04 0.73 0.13 1.08 -3.87-0.19-7.29-2.05-9.58-4.86 -0.4 0.69-0.63 1.49-0.63 2.34 0 1.61 0.82 3.03 2.06 3.86 -0.76-0.02-1.47-0.23-2.1-0.57v0.06c0 2.25 1.6 4.12 3.71 4.55 -0.39 0.11-0.8 0.17-1.22 0.17 -0.3 0-0.6-0.03-0.89-0.08 0.6 1.86 2.35 3.21 4.42 3.25 -1.62 1.27-3.65 2.03-5.86 2.03 -0.38 0-0.76-0.02-1.13-0.07 2.09 1.34 4.55 2.13 7.21 2.13 8.65 0 13.37-7.42 13.37-13.87 0-0.21 0-0.42-0.01-0.63 0.92-0.67 1.71-1.51 2.34-2.46l-0.03-0.01z"/>
</svg>
